<svg xmlns="http://www.w3.org/2000/svg" width="980" height="470" viewBox="0 0 980 470">
<rect width="100%" height="100%" fill="#ffffff"/>
<text x="90" y="30" font-family="Arial" font-size="22" font-weight="700" fill="#1f2933">Multi-column integer lookup - throughput (qps)</text>
<text x="90" y="50" font-family="Arial" font-size="12" fill="#52606d">10pct identical pgwire target, psql/libpq client boundary, concurrency 1-64</text>
<line x1="90" x2="942" y1="396.0" y2="396.0" stroke="#e5e7eb" stroke-width="1"/>
<text x="80" y="400.0" text-anchor="end" font-family="Arial" font-size="12" fill="#6b7280">0.00</text>
<line x1="90" x2="942" y1="327.6" y2="327.6" stroke="#e5e7eb" stroke-width="1"/>
<text x="80" y="331.6" text-anchor="end" font-family="Arial" font-size="12" fill="#6b7280">153.0</text>
<line x1="90" x2="942" y1="259.2" y2="259.2" stroke="#e5e7eb" stroke-width="1"/>
<text x="80" y="263.2" text-anchor="end" font-family="Arial" font-size="12" fill="#6b7280">306.0</text>
<line x1="90" x2="942" y1="190.8" y2="190.8" stroke="#e5e7eb" stroke-width="1"/>
<text x="80" y="194.8" text-anchor="end" font-family="Arial" font-size="12" fill="#6b7280">459.0</text>
<line x1="90" x2="942" y1="122.4" y2="122.4" stroke="#e5e7eb" stroke-width="1"/>
<text x="80" y="126.4" text-anchor="end" font-family="Arial" font-size="12" fill="#6b7280">612.0</text>
<line x1="90" x2="942" y1="54.0" y2="54.0" stroke="#e5e7eb" stroke-width="1"/>
<text x="80" y="58.0" text-anchor="end" font-family="Arial" font-size="12" fill="#6b7280">765.0</text>
<line x1="90" x2="942" y1="396" y2="396" stroke="#111827"/>
<line x1="90" x2="90" y1="54" y2="396" stroke="#111827"/>
<line x1="90.0" x2="90.0" y1="396" y2="401" stroke="#111827"/>
<text x="90.0" y="420" text-anchor="middle" font-family="Arial" font-size="12" fill="#374151">1</text>
<line x1="232.0" x2="232.0" y1="396" y2="401" stroke="#111827"/>
<text x="232.0" y="420" text-anchor="middle" font-family="Arial" font-size="12" fill="#374151">2</text>
<line x1="374.0" x2="374.0" y1="396" y2="401" stroke="#111827"/>
<text x="374.0" y="420" text-anchor="middle" font-family="Arial" font-size="12" fill="#374151">4</text>
<line x1="516.0" x2="516.0" y1="396" y2="401" stroke="#111827"/>
<text x="516.0" y="420" text-anchor="middle" font-family="Arial" font-size="12" fill="#374151">8</text>
<line x1="658.0" x2="658.0" y1="396" y2="401" stroke="#111827"/>
<text x="658.0" y="420" text-anchor="middle" font-family="Arial" font-size="12" fill="#374151">16</text>
<line x1="800.0" x2="800.0" y1="396" y2="401" stroke="#111827"/>
<text x="800.0" y="420" text-anchor="middle" font-family="Arial" font-size="12" fill="#374151">32</text>
<line x1="942.0" x2="942.0" y1="396" y2="401" stroke="#111827"/>
<text x="942.0" y="420" text-anchor="middle" font-family="Arial" font-size="12" fill="#374151">64</text>
<text x="516.0" y="452" text-anchor="middle" font-family="Arial" font-size="13" fill="#374151">Concurrency</text>
<text x="22" y="225.0" transform="rotate(-90 22 225.0)" text-anchor="middle" font-family="Arial" font-size="13" fill="#374151">throughput (qps)</text>
<polyline points="90.0,395.5 232.0,395.2 374.0,394.9 516.0,395.2 658.0,394.4 800.0,392.9 942.0,390.9" fill="none" stroke="#4d76b8" stroke-width="3" stroke-linejoin="round" stroke-linecap="round"/>
<circle cx="90.0" cy="395.5" r="4" fill="#4d76b8" stroke="#fff" stroke-width="1"/>
<circle cx="232.0" cy="395.2" r="4" fill="#4d76b8" stroke="#fff" stroke-width="1"/>
<circle cx="374.0" cy="394.9" r="4" fill="#4d76b8" stroke="#fff" stroke-width="1"/>
<circle cx="516.0" cy="395.2" r="4" fill="#4d76b8" stroke="#fff" stroke-width="1"/>
<circle cx="658.0" cy="394.4" r="4" fill="#4d76b8" stroke="#fff" stroke-width="1"/>
<circle cx="800.0" cy="392.9" r="4" fill="#4d76b8" stroke="#fff" stroke-width="1"/>
<circle cx="942.0" cy="390.9" r="4" fill="#4d76b8" stroke="#fff" stroke-width="1"/>
<line x1="682" x2="704" y1="22" y2="22" stroke="#4d76b8" stroke-width="3"/>
<text x="712" y="26" font-family="Arial" font-size="12" fill="#374151">Default PostgreSQL</text>
<polyline points="90.0,388.4 232.0,381.1 374.0,366.6 516.0,337.4 658.0,289.3 800.0,199.8 942.0,111.0" fill="none" stroke="#0a8f70" stroke-width="3" stroke-linejoin="round" stroke-linecap="round"/>
<circle cx="90.0" cy="388.4" r="4" fill="#0a8f70" stroke="#fff" stroke-width="1"/>
<circle cx="232.0" cy="381.1" r="4" fill="#0a8f70" stroke="#fff" stroke-width="1"/>
<circle cx="374.0" cy="366.6" r="4" fill="#0a8f70" stroke="#fff" stroke-width="1"/>
<circle cx="516.0" cy="337.4" r="4" fill="#0a8f70" stroke="#fff" stroke-width="1"/>
<circle cx="658.0" cy="289.3" r="4" fill="#0a8f70" stroke="#fff" stroke-width="1"/>
<circle cx="800.0" cy="199.8" r="4" fill="#0a8f70" stroke="#fff" stroke-width="1"/>
<circle cx="942.0" cy="111.0" r="4" fill="#0a8f70" stroke="#fff" stroke-width="1"/>
<line x1="682" x2="704" y1="40" y2="40" stroke="#0a8f70" stroke-width="3"/>
<text x="712" y="44" font-family="Arial" font-size="12" fill="#374151">Tuned PostgreSQL</text>
<polyline points="90.0,386.9 232.0,380.0 374.0,370.6 516.0,359.1 658.0,347.8 800.0,339.7 942.0,334.9" fill="none" stroke="#d04f3f" stroke-width="3" stroke-linejoin="round" stroke-linecap="round"/>
<circle cx="90.0" cy="386.9" r="4" fill="#d04f3f" stroke="#fff" stroke-width="1"/>
<circle cx="232.0" cy="380.0" r="4" fill="#d04f3f" stroke="#fff" stroke-width="1"/>
<circle cx="374.0" cy="370.6" r="4" fill="#d04f3f" stroke="#fff" stroke-width="1"/>
<circle cx="516.0" cy="359.1" r="4" fill="#d04f3f" stroke="#fff" stroke-width="1"/>
<circle cx="658.0" cy="347.8" r="4" fill="#d04f3f" stroke="#fff" stroke-width="1"/>
<circle cx="800.0" cy="339.7" r="4" fill="#d04f3f" stroke="#fff" stroke-width="1"/>
<circle cx="942.0" cy="334.9" r="4" fill="#d04f3f" stroke="#fff" stroke-width="1"/>
<line x1="682" x2="704" y1="58" y2="58" stroke="#d04f3f" stroke-width="3"/>
<text x="712" y="62" font-family="Arial" font-size="12" fill="#374151">GPU DB retained</text>
</svg>